<?xml version="1.0" standalone="no"?>
<!DOCTYPE svg PUBLIC "-//W3C//DTD SVG 20010904//EN"
 "http://www.w3.org/TR/2001/REC-SVG-20010904/DTD/svg10.dtd">
<svg version="1.0" xmlns="http://www.w3.org/2000/svg"
 width="1024.000000pt" height="1024.000000pt" viewBox="0 0 1024.000000 1024.000000"
 preserveAspectRatio="xMidYMid meet">
<metadata>
Created by potrace 1.11, written by Peter Selinger 2001-2013
</metadata>
<g transform="translate(0.000000,1024.000000) scale(0.100000,-0.100000)"
fill="#000000" stroke="none">
<path d="M0 5120 l0 -5120 5120 0 5120 0 0 5120 0 5120 -5120 0 -5120 0 0
-5120z m5305 1916 c231 -11 482 -80 718 -197 272 -135 515 -342 705 -601 52
-71 177 -289 192 -334 l12 -34 138 0 c742 0 1373 -520 1532 -1263 30 -140 32
-434 4 -582 -61 -327 -201 -591 -440 -831 -233 -232 -476 -365 -803 -437 -98
-21 -99 -21 -1963 -25 -1255 -2 -1901 0 -1975 7 -357 35 -656 207 -865 499
-160 224 -239 514 -212 782 13 128 38 236 77 335 15 37 25 68 23 69 -1 1 -55
37 -118 78 -147 97 -162 110 -295 243 -136 135 -157 161 -251 301 -159 239
-251 479 -299 784 -13 84 -19 409 -9 463 7 35 24 35 24 0 0 -14 3 -24 6 -20 4
3 3 23 -1 43 -5 29 -9 34 -16 23 -12 -17 -1 73 12 109 5 13 7 27 5 30 -5 8
2245 4 2253 -3 2 -3 0 -10 -7 -17 -8 -8 -15 -8 -27 2 -8 7 -19 9 -23 5 -4 -4
-1 -10 6 -12 6 -3 12 -11 12 -19 0 -9 -4 -12 -10 -9 -5 3 -10 1 -10 -4 0 -22
19 -10 64 41 36 39 44 53 34 60 -9 7 -7 8 7 4 14 -4 33 7 67 38 25 25 59 53
75 63 49 31 61 45 56 62 -4 13 -3 13 5 2 8 -11 16 -9 43 10 19 13 36 27 39 30
4 5 71 46 141 85 10 6 16 14 11 19 -4 5 -2 5 5 1 10 -5 119 39 133 54 3 4 28
13 55 23 28 9 82 27 120 40 125 44 178 57 289 72 61 9 111 17 112 18 4 3 215
-1 349 -7z m-3638 -208 c-3 -8 -6 -5 -6 6 -1 11 2 17 5 13 3 -3 4 -12 1 -19z
m-43 -13 c3 -8 1 -15 -4 -15 -6 0 -10 7 -10 15 0 8 2 15 4 15 2 0 6 -7 10 -15z
m23 -7 c-3 -8 -6 -5 -6 6 -1 11 2 17 5 13 3 -3 4 -12 1 -19z m-56 -127 c-8 -5
-12 -18 -8 -32 3 -13 2 -33 -3 -44 -5 -15 -8 -6 -11 33 -3 38 -1 52 9 52 8 0
10 5 6 13 -5 9 -3 9 7 -1 12 -11 12 -14 0 -21z m2394 -11 c-3 -5 -10 -10 -16
-10 -5 0 -9 5 -9 10 0 6 7 10 16 10 8 0 12 -4 9 -10z m-95 -40 c8 -5 11 -12 8
-16 -4 -3 -14 1 -23 10 -18 17 -9 21 15 6z m-2334 -46 c-4 -14 -9 -24 -12 -21
-3 2 -2 17 2 31 3 15 9 25 11 22 3 -3 2 -17 -1 -32z m2264 -33 c0 -5 -9 -7
-20 -4 -11 3 -20 7 -20 9 0 2 9 4 20 4 11 0 20 -4 20 -9z m-53 -48 c-3 -10 -5
-2 -5 17 0 19 2 27 5 18 2 -10 2 -26 0 -35z"/>
<path d="M3666 6438 c3 -5 10 -6 15 -3 13 9 11 12 -6 12 -8 0 -12 -4 -9 -9z"/>
<path d="M3681 6402 c4 -22 -3 -29 -27 -24 -16 3 -30 -1 -35 -9 -15 -24 -10
-33 9 -17 9 9 23 13 30 11 8 -3 22 4 32 15 16 17 17 21 5 26 -8 3 -14 2 -14
-2z"/>
<path d="M1502 6380 c0 -14 2 -19 5 -12 2 6 2 18 0 25 -3 6 -5 1 -5 -13z"/>
<path d="M3616 6304 c-9 -8 -16 -20 -16 -26 0 -6 1 -9 3 -7 1 2 11 14 21 27
22 25 16 30 -8 6z"/>
<path d="M1504 6236 c-3 -8 -4 -29 -2 -48 3 -29 4 -27 8 15 5 48 3 58 -6 33z"/>
<path d="M1483 6120 c0 -25 2 -35 4 -22 2 12 2 32 0 45 -2 12 -4 2 -4 -23z"/>
<path d="M1506 5837 c3 -10 9 -15 12 -12 3 3 0 11 -7 18 -10 9 -11 8 -5 -6z"/>
</g>
</svg>
